<mxfile host="app.diagrams.net" modified="2023-03-30T23:24:51.967Z" agent="Mozilla/5.0 (Windows NT 10.0; Win64; x64) AppleWebKit/537.36 (KHTML, like Gecko) Chrome/111.0.0.0 Safari/537.36" etag="63585ErbQZvUpl3ALz-1" version="21.1.2" type="github">
  <diagram name="Página-1" id="FyNhM8E8tGC533qrjE1v">
    <mxGraphModel dx="1032" dy="521" grid="1" gridSize="10" guides="1" tooltips="1" connect="1" arrows="1" fold="1" page="1" pageScale="1" pageWidth="827" pageHeight="1169" math="0" shadow="0">
      <root>
        <mxCell id="0" />
        <mxCell id="1" parent="0" />
        <mxCell id="Nw6Wf11O5FGYg6xUdQ0s-1" value="&lt;font style=&quot;vertical-align: inherit;&quot;&gt;&lt;font style=&quot;vertical-align: inherit;&quot;&gt;LOGIN&lt;/font&gt;&lt;/font&gt;" style="ellipse;whiteSpace=wrap;html=1;" parent="1" vertex="1">
          <mxGeometry x="320" y="60" width="160" height="60" as="geometry" />
        </mxCell>
        <mxCell id="Nw6Wf11O5FGYg6xUdQ0s-13" value="&lt;font style=&quot;vertical-align: inherit;&quot;&gt;&lt;font style=&quot;vertical-align: inherit;&quot;&gt;MODIFICAR&amp;nbsp;&lt;br&gt;LUGARES&lt;br&gt;&lt;/font&gt;&lt;/font&gt;" style="ellipse;whiteSpace=wrap;html=1;" parent="1" vertex="1">
          <mxGeometry x="320" y="560" width="160" height="60" as="geometry" />
        </mxCell>
        <mxCell id="Nw6Wf11O5FGYg6xUdQ0s-14" value="&lt;font style=&quot;vertical-align: inherit;&quot;&gt;&lt;font style=&quot;vertical-align: inherit;&quot;&gt;R.CATEGORIAS&lt;/font&gt;&lt;/font&gt;" style="ellipse;whiteSpace=wrap;html=1;" parent="1" vertex="1">
          <mxGeometry x="320" y="390" width="160" height="60" as="geometry" />
        </mxCell>
        <mxCell id="Nw6Wf11O5FGYg6xUdQ0s-15" value="&lt;font style=&quot;vertical-align: inherit;&quot;&gt;&lt;font style=&quot;vertical-align: inherit;&quot;&gt;R.TUSUARIO&lt;/font&gt;&lt;/font&gt;" style="ellipse;whiteSpace=wrap;html=1;" parent="1" vertex="1">
          <mxGeometry x="320" y="310" width="160" height="60" as="geometry" />
        </mxCell>
        <mxCell id="Nw6Wf11O5FGYg6xUdQ0s-16" value="&lt;font style=&quot;vertical-align: inherit;&quot;&gt;&lt;font style=&quot;vertical-align: inherit;&quot;&gt;R.LUGARES&lt;/font&gt;&lt;/font&gt;" style="ellipse;whiteSpace=wrap;html=1;" parent="1" vertex="1">
          <mxGeometry x="320" y="230" width="160" height="60" as="geometry" />
        </mxCell>
        <mxCell id="Nw6Wf11O5FGYg6xUdQ0s-17" value="&lt;font style=&quot;vertical-align: inherit;&quot;&gt;&lt;font style=&quot;vertical-align: inherit;&quot;&gt;MODIFICAR&lt;br&gt;USUARIO&lt;br&gt;&lt;/font&gt;&lt;/font&gt;" style="ellipse;whiteSpace=wrap;html=1;" parent="1" vertex="1">
          <mxGeometry x="320" y="470" width="160" height="60" as="geometry" />
        </mxCell>
        <mxCell id="Nw6Wf11O5FGYg6xUdQ0s-18" value="&lt;font style=&quot;vertical-align: inherit;&quot;&gt;&lt;font style=&quot;vertical-align: inherit;&quot;&gt;R.USUARIOS&lt;/font&gt;&lt;/font&gt;" style="ellipse;whiteSpace=wrap;html=1;" parent="1" vertex="1">
          <mxGeometry x="320" y="140" width="160" height="60" as="geometry" />
        </mxCell>
        <mxCell id="Nw6Wf11O5FGYg6xUdQ0s-19" style="edgeStyle=orthogonalEdgeStyle;rounded=0;orthogonalLoop=1;jettySize=auto;html=1;exitX=0.5;exitY=1;exitDx=0;exitDy=0;" parent="1" source="Nw6Wf11O5FGYg6xUdQ0s-1" target="Nw6Wf11O5FGYg6xUdQ0s-1" edge="1">
          <mxGeometry relative="1" as="geometry" />
        </mxCell>
        <mxCell id="Nw6Wf11O5FGYg6xUdQ0s-20" value="&lt;font style=&quot;vertical-align: inherit;&quot;&gt;&lt;font style=&quot;vertical-align: inherit;&quot;&gt;MODIFICAR&lt;br&gt;TUSUARIO&lt;br&gt;&lt;/font&gt;&lt;/font&gt;" style="ellipse;whiteSpace=wrap;html=1;" parent="1" vertex="1">
          <mxGeometry x="320" y="640" width="160" height="60" as="geometry" />
        </mxCell>
        <mxCell id="Nw6Wf11O5FGYg6xUdQ0s-21" value="&lt;font style=&quot;vertical-align: inherit;&quot;&gt;&lt;font style=&quot;vertical-align: inherit;&quot;&gt;REPORTES&lt;/font&gt;&lt;/font&gt;" style="ellipse;whiteSpace=wrap;html=1;" parent="1" vertex="1">
          <mxGeometry x="320" y="820" width="160" height="60" as="geometry" />
        </mxCell>
        <mxCell id="Nw6Wf11O5FGYg6xUdQ0s-22" value="&lt;font style=&quot;vertical-align: inherit;&quot;&gt;&lt;font style=&quot;vertical-align: inherit;&quot;&gt;HISTORIAL&lt;/font&gt;&lt;/font&gt;" style="ellipse;whiteSpace=wrap;html=1;" parent="1" vertex="1">
          <mxGeometry x="320" y="730" width="160" height="60" as="geometry" />
        </mxCell>
        <mxCell id="Nw6Wf11O5FGYg6xUdQ0s-23" value="&lt;font style=&quot;vertical-align: inherit;&quot;&gt;&lt;font style=&quot;vertical-align: inherit;&quot;&gt;COTIZACIÓN&lt;/font&gt;&lt;/font&gt;" style="ellipse;whiteSpace=wrap;html=1;" parent="1" vertex="1">
          <mxGeometry x="320" y="1000" width="160" height="60" as="geometry" />
        </mxCell>
        <mxCell id="Nw6Wf11O5FGYg6xUdQ0s-24" value="&lt;font style=&quot;vertical-align: inherit;&quot;&gt;&lt;font style=&quot;vertical-align: inherit;&quot;&gt;BÚSQUEDA&lt;/font&gt;&lt;/font&gt;" style="ellipse;whiteSpace=wrap;html=1;" parent="1" vertex="1">
          <mxGeometry x="320" y="910" width="160" height="60" as="geometry" />
        </mxCell>
        <mxCell id="Nw6Wf11O5FGYg6xUdQ0s-25" value="&lt;font style=&quot;vertical-align: inherit;&quot;&gt;&lt;font style=&quot;vertical-align: inherit;&quot;&gt;&lt;font style=&quot;vertical-align: inherit;&quot;&gt;&lt;font style=&quot;vertical-align: inherit;&quot;&gt;Usuario Lugares&lt;/font&gt;&lt;/font&gt;&lt;/font&gt;&lt;/font&gt;" style="shape=umlActor;verticalLabelPosition=bottom;verticalAlign=top;html=1;outlineConnect=0;" parent="1" vertex="1">
          <mxGeometry x="700" y="440" width="100" height="180" as="geometry" />
        </mxCell>
        <mxCell id="Nw6Wf11O5FGYg6xUdQ0s-26" value="&lt;font style=&quot;vertical-align: inherit;&quot;&gt;&lt;font style=&quot;vertical-align: inherit;&quot;&gt;V.FAST&lt;/font&gt;&lt;/font&gt;" style="shape=umlActor;verticalLabelPosition=bottom;verticalAlign=top;html=1;outlineConnect=0;" parent="1" vertex="1">
          <mxGeometry x="60" y="440" width="100" height="180" as="geometry" />
        </mxCell>
        <mxCell id="Nw6Wf11O5FGYg6xUdQ0s-32" value="&lt;font style=&quot;vertical-align: inherit;&quot;&gt;&lt;font style=&quot;vertical-align: inherit;&quot;&gt;Autentificar&lt;br&gt;T.usuario&lt;br&gt;&lt;/font&gt;&lt;/font&gt;" style="ellipse;whiteSpace=wrap;html=1;" parent="1" vertex="1">
          <mxGeometry x="480" y="20" width="70" height="30" as="geometry" />
        </mxCell>
        <mxCell id="Nw6Wf11O5FGYg6xUdQ0s-33" value="&lt;font style=&quot;vertical-align: inherit;&quot;&gt;&lt;font style=&quot;vertical-align: inherit;&quot;&gt;&lt;font style=&quot;vertical-align: inherit;&quot;&gt;&lt;font style=&quot;vertical-align: inherit;&quot;&gt;Cerrar&lt;br&gt;&lt;/font&gt;&lt;/font&gt;&lt;font style=&quot;vertical-align: inherit;&quot;&gt;&lt;font style=&quot;vertical-align: inherit;&quot;&gt;Sesión&lt;/font&gt;&lt;/font&gt;&lt;br&gt;&lt;/font&gt;&lt;/font&gt;" style="ellipse;whiteSpace=wrap;html=1;" parent="1" vertex="1">
          <mxGeometry x="520" y="50" width="60" height="30" as="geometry" />
        </mxCell>
        <mxCell id="Nw6Wf11O5FGYg6xUdQ0s-34" value="&lt;font style=&quot;vertical-align: inherit;&quot;&gt;&lt;font style=&quot;vertical-align: inherit;&quot;&gt;&lt;font style=&quot;vertical-align: inherit;&quot;&gt;&lt;font style=&quot;vertical-align: inherit;&quot;&gt;Recuperar&lt;br&gt;&lt;/font&gt;&lt;/font&gt;&lt;font style=&quot;vertical-align: inherit;&quot;&gt;&lt;font style=&quot;vertical-align: inherit;&quot;&gt;Contraseña&lt;/font&gt;&lt;/font&gt;&lt;br&gt;&lt;/font&gt;&lt;/font&gt;" style="ellipse;whiteSpace=wrap;html=1;" parent="1" vertex="1">
          <mxGeometry x="510" y="90" width="80" height="30" as="geometry" />
        </mxCell>
        <mxCell id="Nw6Wf11O5FGYg6xUdQ0s-35" value="" style="endArrow=none;dashed=1;html=1;rounded=0;exitX=0.76;exitY=0.008;exitDx=0;exitDy=0;exitPerimeter=0;entryX=0;entryY=0.5;entryDx=0;entryDy=0;" parent="1" source="Nw6Wf11O5FGYg6xUdQ0s-1" target="Nw6Wf11O5FGYg6xUdQ0s-32" edge="1">
          <mxGeometry width="50" height="50" relative="1" as="geometry">
            <mxPoint x="414" y="60" as="sourcePoint" />
            <mxPoint x="464" y="10" as="targetPoint" />
            <Array as="points" />
          </mxGeometry>
        </mxCell>
        <mxCell id="Nw6Wf11O5FGYg6xUdQ0s-36" value="" style="endArrow=none;dashed=1;html=1;rounded=0;exitX=0.961;exitY=0.23;exitDx=0;exitDy=0;exitPerimeter=0;entryX=0;entryY=0.5;entryDx=0;entryDy=0;" parent="1" source="Nw6Wf11O5FGYg6xUdQ0s-1" target="Nw6Wf11O5FGYg6xUdQ0s-33" edge="1">
          <mxGeometry width="50" height="50" relative="1" as="geometry">
            <mxPoint x="460" y="115" as="sourcePoint" />
            <mxPoint x="510" y="65" as="targetPoint" />
          </mxGeometry>
        </mxCell>
        <mxCell id="Nw6Wf11O5FGYg6xUdQ0s-37" value="" style="endArrow=none;dashed=1;html=1;rounded=0;exitX=0.913;exitY=0.841;exitDx=0;exitDy=0;exitPerimeter=0;entryX=0;entryY=0.5;entryDx=0;entryDy=0;" parent="1" source="Nw6Wf11O5FGYg6xUdQ0s-1" target="Nw6Wf11O5FGYg6xUdQ0s-34" edge="1">
          <mxGeometry width="50" height="50" relative="1" as="geometry">
            <mxPoint x="470" y="150" as="sourcePoint" />
            <mxPoint x="520" y="100" as="targetPoint" />
          </mxGeometry>
        </mxCell>
        <mxCell id="Nw6Wf11O5FGYg6xUdQ0s-38" value="&lt;font style=&quot;vertical-align: inherit;&quot;&gt;&lt;font style=&quot;vertical-align: inherit;&quot;&gt;&lt;font style=&quot;vertical-align: inherit;&quot;&gt;&lt;font style=&quot;vertical-align: inherit;&quot;&gt;Eliminar&lt;br&gt;&lt;/font&gt;&lt;/font&gt;&lt;font style=&quot;vertical-align: inherit;&quot;&gt;&lt;font style=&quot;vertical-align: inherit;&quot;&gt;Usuario&lt;/font&gt;&lt;/font&gt;&lt;br&gt;&lt;/font&gt;&lt;/font&gt;" style="ellipse;whiteSpace=wrap;html=1;" parent="1" vertex="1">
          <mxGeometry x="505" y="450" width="70" height="30" as="geometry" />
        </mxCell>
        <mxCell id="Nw6Wf11O5FGYg6xUdQ0s-39" value="" style="endArrow=none;dashed=1;html=1;rounded=0;exitX=1;exitY=0.5;exitDx=0;exitDy=0;entryX=0.006;entryY=0.812;entryDx=0;entryDy=0;entryPerimeter=0;" parent="1" source="Nw6Wf11O5FGYg6xUdQ0s-17" target="Nw6Wf11O5FGYg6xUdQ0s-38" edge="1">
          <mxGeometry width="50" height="50" relative="1" as="geometry">
            <mxPoint x="490" y="545" as="sourcePoint" />
            <mxPoint x="540" y="495" as="targetPoint" />
          </mxGeometry>
        </mxCell>
        <mxCell id="Nw6Wf11O5FGYg6xUdQ0s-40" value="&lt;font style=&quot;vertical-align: inherit;&quot;&gt;&lt;font style=&quot;vertical-align: inherit;&quot;&gt;Eliminar&lt;br&gt;Lugares&lt;br&gt;&lt;/font&gt;&lt;/font&gt;" style="ellipse;whiteSpace=wrap;html=1;" parent="1" vertex="1">
          <mxGeometry x="475" y="520" width="80" height="30" as="geometry" />
        </mxCell>
        <mxCell id="Nw6Wf11O5FGYg6xUdQ0s-41" value="" style="endArrow=none;dashed=1;html=1;rounded=0;exitX=1;exitY=0.5;exitDx=0;exitDy=0;" parent="1" source="Nw6Wf11O5FGYg6xUdQ0s-13" target="Nw6Wf11O5FGYg6xUdQ0s-40" edge="1">
          <mxGeometry width="50" height="50" relative="1" as="geometry">
            <mxPoint x="490" y="610" as="sourcePoint" />
            <mxPoint x="540" y="560" as="targetPoint" />
          </mxGeometry>
        </mxCell>
        <mxCell id="Nw6Wf11O5FGYg6xUdQ0s-42" value="&lt;font style=&quot;vertical-align: inherit;&quot;&gt;&lt;font style=&quot;vertical-align: inherit;&quot;&gt;Fotografías&lt;/font&gt;&lt;/font&gt;" style="ellipse;whiteSpace=wrap;html=1;" parent="1" vertex="1">
          <mxGeometry x="510" y="595" width="70" height="25" as="geometry" />
        </mxCell>
        <mxCell id="Nw6Wf11O5FGYg6xUdQ0s-43" value="" style="endArrow=none;dashed=1;html=1;rounded=0;entryX=0;entryY=1;entryDx=0;entryDy=0;" parent="1" source="Nw6Wf11O5FGYg6xUdQ0s-13" target="Nw6Wf11O5FGYg6xUdQ0s-42" edge="1">
          <mxGeometry width="50" height="50" relative="1" as="geometry">
            <mxPoint x="460" y="670" as="sourcePoint" />
            <mxPoint x="510" y="620" as="targetPoint" />
          </mxGeometry>
        </mxCell>
        <mxCell id="Nw6Wf11O5FGYg6xUdQ0s-44" value="&lt;font style=&quot;vertical-align: inherit;&quot;&gt;&lt;font style=&quot;vertical-align: inherit;&quot;&gt;Comentarios&lt;/font&gt;&lt;/font&gt;" style="ellipse;whiteSpace=wrap;html=1;" parent="1" vertex="1">
          <mxGeometry x="480" y="630" width="80" height="20" as="geometry" />
        </mxCell>
        <mxCell id="Nw6Wf11O5FGYg6xUdQ0s-45" value="" style="endArrow=none;dashed=1;html=1;rounded=0;entryX=0;entryY=0.5;entryDx=0;entryDy=0;" parent="1" source="Nw6Wf11O5FGYg6xUdQ0s-13" target="Nw6Wf11O5FGYg6xUdQ0s-44" edge="1">
          <mxGeometry width="50" height="50" relative="1" as="geometry">
            <mxPoint x="460" y="670" as="sourcePoint" />
            <mxPoint x="510" y="620" as="targetPoint" />
          </mxGeometry>
        </mxCell>
        <mxCell id="Nw6Wf11O5FGYg6xUdQ0s-47" value="&lt;font style=&quot;vertical-align: inherit;&quot;&gt;&lt;font style=&quot;vertical-align: inherit;&quot;&gt;Nombre&lt;/font&gt;&lt;/font&gt;" style="ellipse;whiteSpace=wrap;html=1;" parent="1" vertex="1">
          <mxGeometry x="530" y="900" width="50" height="20" as="geometry" />
        </mxCell>
        <mxCell id="Nw6Wf11O5FGYg6xUdQ0s-48" value="&lt;font style=&quot;vertical-align: inherit;&quot;&gt;&lt;font style=&quot;vertical-align: inherit;&quot;&gt;Categoría&lt;/font&gt;&lt;/font&gt;" style="ellipse;whiteSpace=wrap;html=1;" parent="1" vertex="1">
          <mxGeometry x="520" y="940" width="60" height="20" as="geometry" />
        </mxCell>
        <mxCell id="Nw6Wf11O5FGYg6xUdQ0s-49" value="&lt;font style=&quot;vertical-align: inherit;&quot;&gt;&lt;font style=&quot;vertical-align: inherit;&quot;&gt;Lugar&lt;/font&gt;&lt;/font&gt;" style="ellipse;whiteSpace=wrap;html=1;" parent="1" vertex="1">
          <mxGeometry x="515" y="860" width="50" height="20" as="geometry" />
        </mxCell>
        <mxCell id="Nw6Wf11O5FGYg6xUdQ0s-51" value="" style="endArrow=none;dashed=1;html=1;rounded=0;exitX=0.989;exitY=0.397;exitDx=0;exitDy=0;exitPerimeter=0;entryX=0.5;entryY=1;entryDx=0;entryDy=0;" parent="1" source="Nw6Wf11O5FGYg6xUdQ0s-24" target="Nw6Wf11O5FGYg6xUdQ0s-49" edge="1">
          <mxGeometry width="50" height="50" relative="1" as="geometry">
            <mxPoint x="460" y="890" as="sourcePoint" />
            <mxPoint x="510" y="840" as="targetPoint" />
          </mxGeometry>
        </mxCell>
        <mxCell id="Nw6Wf11O5FGYg6xUdQ0s-52" value="" style="endArrow=none;dashed=1;html=1;rounded=0;exitX=1;exitY=0.5;exitDx=0;exitDy=0;entryX=0.5;entryY=1;entryDx=0;entryDy=0;" parent="1" source="Nw6Wf11O5FGYg6xUdQ0s-24" target="Nw6Wf11O5FGYg6xUdQ0s-47" edge="1">
          <mxGeometry width="50" height="50" relative="1" as="geometry">
            <mxPoint x="460" y="890" as="sourcePoint" />
            <mxPoint x="510" y="840" as="targetPoint" />
          </mxGeometry>
        </mxCell>
        <mxCell id="Nw6Wf11O5FGYg6xUdQ0s-53" value="" style="endArrow=none;dashed=1;html=1;rounded=0;exitX=0.961;exitY=0.767;exitDx=0;exitDy=0;exitPerimeter=0;entryX=0;entryY=0.5;entryDx=0;entryDy=0;" parent="1" source="Nw6Wf11O5FGYg6xUdQ0s-24" target="Nw6Wf11O5FGYg6xUdQ0s-48" edge="1">
          <mxGeometry width="50" height="50" relative="1" as="geometry">
            <mxPoint x="460" y="890" as="sourcePoint" />
            <mxPoint x="510" y="840" as="targetPoint" />
          </mxGeometry>
        </mxCell>
        <mxCell id="Nw6Wf11O5FGYg6xUdQ0s-56" value="" style="endArrow=classic;html=1;rounded=0;exitX=0;exitY=0.3333333333333333;exitDx=0;exitDy=0;exitPerimeter=0;entryX=0.975;entryY=0.656;entryDx=0;entryDy=0;entryPerimeter=0;" parent="1" source="Nw6Wf11O5FGYg6xUdQ0s-25" target="Nw6Wf11O5FGYg6xUdQ0s-1" edge="1">
          <mxGeometry width="50" height="50" relative="1" as="geometry">
            <mxPoint x="460" y="330" as="sourcePoint" />
            <mxPoint x="510" y="280" as="targetPoint" />
          </mxGeometry>
        </mxCell>
        <mxCell id="Nw6Wf11O5FGYg6xUdQ0s-58" value="" style="endArrow=classic;html=1;rounded=0;exitX=0;exitY=0.3333333333333333;exitDx=0;exitDy=0;exitPerimeter=0;entryX=1;entryY=0.5;entryDx=0;entryDy=0;" parent="1" source="Nw6Wf11O5FGYg6xUdQ0s-25" target="Nw6Wf11O5FGYg6xUdQ0s-16" edge="1">
          <mxGeometry width="50" height="50" relative="1" as="geometry">
            <mxPoint x="460" y="550" as="sourcePoint" />
            <mxPoint x="510" y="500" as="targetPoint" />
          </mxGeometry>
        </mxCell>
        <mxCell id="Nw6Wf11O5FGYg6xUdQ0s-59" value="" style="endArrow=classic;html=1;rounded=0;exitX=0;exitY=0.3333333333333333;exitDx=0;exitDy=0;exitPerimeter=0;entryX=1;entryY=0.5;entryDx=0;entryDy=0;" parent="1" source="Nw6Wf11O5FGYg6xUdQ0s-25" target="Nw6Wf11O5FGYg6xUdQ0s-13" edge="1">
          <mxGeometry width="50" height="50" relative="1" as="geometry">
            <mxPoint x="690" y="500" as="sourcePoint" />
            <mxPoint x="510" y="500" as="targetPoint" />
          </mxGeometry>
        </mxCell>
        <mxCell id="Nw6Wf11O5FGYg6xUdQ0s-60" value="" style="endArrow=classic;html=1;rounded=0;entryX=1;entryY=0.5;entryDx=0;entryDy=0;exitX=0;exitY=0.3333333333333333;exitDx=0;exitDy=0;exitPerimeter=0;" parent="1" source="Nw6Wf11O5FGYg6xUdQ0s-25" target="Nw6Wf11O5FGYg6xUdQ0s-22" edge="1">
          <mxGeometry width="50" height="50" relative="1" as="geometry">
            <mxPoint x="460" y="670" as="sourcePoint" />
            <mxPoint x="510" y="620" as="targetPoint" />
          </mxGeometry>
        </mxCell>
        <mxCell id="Nw6Wf11O5FGYg6xUdQ0s-61" value="" style="endArrow=classic;html=1;rounded=0;exitX=0;exitY=0.3333333333333333;exitDx=0;exitDy=0;exitPerimeter=0;entryX=0.938;entryY=0.167;entryDx=0;entryDy=0;entryPerimeter=0;" parent="1" source="Nw6Wf11O5FGYg6xUdQ0s-25" target="Nw6Wf11O5FGYg6xUdQ0s-24" edge="1">
          <mxGeometry width="50" height="50" relative="1" as="geometry">
            <mxPoint x="460" y="670" as="sourcePoint" />
            <mxPoint x="510" y="620" as="targetPoint" />
          </mxGeometry>
        </mxCell>
        <mxCell id="Nw6Wf11O5FGYg6xUdQ0s-62" value="" style="endArrow=classic;html=1;rounded=0;exitX=0;exitY=0.3333333333333333;exitDx=0;exitDy=0;exitPerimeter=0;entryX=0.982;entryY=0.359;entryDx=0;entryDy=0;entryPerimeter=0;" parent="1" source="Nw6Wf11O5FGYg6xUdQ0s-25" target="Nw6Wf11O5FGYg6xUdQ0s-23" edge="1">
          <mxGeometry width="50" height="50" relative="1" as="geometry">
            <mxPoint x="700" y="490" as="sourcePoint" />
            <mxPoint x="510" y="840" as="targetPoint" />
            <Array as="points">
              <mxPoint x="640" y="960" />
            </Array>
          </mxGeometry>
        </mxCell>
        <mxCell id="Nw6Wf11O5FGYg6xUdQ0s-63" value="" style="endArrow=classic;html=1;rounded=0;entryX=0;entryY=0.5;entryDx=0;entryDy=0;exitX=1;exitY=0.3333333333333333;exitDx=0;exitDy=0;exitPerimeter=0;" parent="1" source="Nw6Wf11O5FGYg6xUdQ0s-26" target="Nw6Wf11O5FGYg6xUdQ0s-1" edge="1">
          <mxGeometry width="50" height="50" relative="1" as="geometry">
            <mxPoint x="150" y="500" as="sourcePoint" />
            <mxPoint x="200" y="450" as="targetPoint" />
          </mxGeometry>
        </mxCell>
        <mxCell id="Nw6Wf11O5FGYg6xUdQ0s-64" value="" style="endArrow=classic;html=1;rounded=0;entryX=0.031;entryY=0.73;entryDx=0;entryDy=0;entryPerimeter=0;exitX=1;exitY=0.3333333333333333;exitDx=0;exitDy=0;exitPerimeter=0;" parent="1" source="Nw6Wf11O5FGYg6xUdQ0s-26" target="Nw6Wf11O5FGYg6xUdQ0s-18" edge="1">
          <mxGeometry width="50" height="50" relative="1" as="geometry">
            <mxPoint x="220" y="460" as="sourcePoint" />
            <mxPoint x="270" y="410" as="targetPoint" />
          </mxGeometry>
        </mxCell>
        <mxCell id="Nw6Wf11O5FGYg6xUdQ0s-65" value="" style="endArrow=classic;html=1;rounded=0;entryX=-0.004;entryY=0.637;entryDx=0;entryDy=0;entryPerimeter=0;" parent="1" target="Nw6Wf11O5FGYg6xUdQ0s-16" edge="1">
          <mxGeometry width="50" height="50" relative="1" as="geometry">
            <mxPoint x="160" y="500" as="sourcePoint" />
            <mxPoint x="270" y="400" as="targetPoint" />
          </mxGeometry>
        </mxCell>
        <mxCell id="Nw6Wf11O5FGYg6xUdQ0s-66" value="" style="endArrow=classic;html=1;rounded=0;entryX=0;entryY=0.667;entryDx=0;entryDy=0;entryPerimeter=0;exitX=1;exitY=0.3333333333333333;exitDx=0;exitDy=0;exitPerimeter=0;" parent="1" source="Nw6Wf11O5FGYg6xUdQ0s-26" target="Nw6Wf11O5FGYg6xUdQ0s-15" edge="1">
          <mxGeometry width="50" height="50" relative="1" as="geometry">
            <mxPoint x="170" y="480" as="sourcePoint" />
            <mxPoint x="220" y="430" as="targetPoint" />
          </mxGeometry>
        </mxCell>
        <mxCell id="Nw6Wf11O5FGYg6xUdQ0s-67" value="" style="endArrow=classic;html=1;rounded=0;entryX=-0.011;entryY=0.619;entryDx=0;entryDy=0;entryPerimeter=0;exitX=1;exitY=0.3333333333333333;exitDx=0;exitDy=0;exitPerimeter=0;" parent="1" source="Nw6Wf11O5FGYg6xUdQ0s-26" target="Nw6Wf11O5FGYg6xUdQ0s-14" edge="1">
          <mxGeometry width="50" height="50" relative="1" as="geometry">
            <mxPoint x="230" y="525" as="sourcePoint" />
            <mxPoint x="280" y="475" as="targetPoint" />
          </mxGeometry>
        </mxCell>
        <mxCell id="Nw6Wf11O5FGYg6xUdQ0s-68" value="" style="endArrow=classic;html=1;rounded=0;entryX=0;entryY=0.5;entryDx=0;entryDy=0;exitX=1;exitY=0.3333333333333333;exitDx=0;exitDy=0;exitPerimeter=0;" parent="1" source="Nw6Wf11O5FGYg6xUdQ0s-26" target="Nw6Wf11O5FGYg6xUdQ0s-17" edge="1">
          <mxGeometry width="50" height="50" relative="1" as="geometry">
            <mxPoint x="160" y="560" as="sourcePoint" />
            <mxPoint x="210" y="510" as="targetPoint" />
          </mxGeometry>
        </mxCell>
        <mxCell id="Nw6Wf11O5FGYg6xUdQ0s-69" value="" style="endArrow=classic;html=1;rounded=0;exitX=1;exitY=0.3333333333333333;exitDx=0;exitDy=0;exitPerimeter=0;entryX=0;entryY=0.5;entryDx=0;entryDy=0;" parent="1" source="Nw6Wf11O5FGYg6xUdQ0s-26" target="Nw6Wf11O5FGYg6xUdQ0s-13" edge="1">
          <mxGeometry width="50" height="50" relative="1" as="geometry">
            <mxPoint x="310" y="590" as="sourcePoint" />
            <mxPoint x="330" y="570" as="targetPoint" />
          </mxGeometry>
        </mxCell>
        <mxCell id="Nw6Wf11O5FGYg6xUdQ0s-70" value="" style="endArrow=classic;html=1;rounded=0;exitX=1;exitY=0.3333333333333333;exitDx=0;exitDy=0;exitPerimeter=0;entryX=0;entryY=0.333;entryDx=0;entryDy=0;entryPerimeter=0;" parent="1" source="Nw6Wf11O5FGYg6xUdQ0s-26" target="Nw6Wf11O5FGYg6xUdQ0s-20" edge="1">
          <mxGeometry width="50" height="50" relative="1" as="geometry">
            <mxPoint x="200" y="635" as="sourcePoint" />
            <mxPoint x="250" y="585" as="targetPoint" />
          </mxGeometry>
        </mxCell>
        <mxCell id="Nw6Wf11O5FGYg6xUdQ0s-71" value="" style="endArrow=classic;html=1;rounded=0;exitX=1;exitY=0.3333333333333333;exitDx=0;exitDy=0;exitPerimeter=0;entryX=0;entryY=0.5;entryDx=0;entryDy=0;" parent="1" source="Nw6Wf11O5FGYg6xUdQ0s-26" target="Nw6Wf11O5FGYg6xUdQ0s-22" edge="1">
          <mxGeometry width="50" height="50" relative="1" as="geometry">
            <mxPoint x="220" y="730" as="sourcePoint" />
            <mxPoint x="270" y="680" as="targetPoint" />
          </mxGeometry>
        </mxCell>
        <mxCell id="Nw6Wf11O5FGYg6xUdQ0s-73" value="" style="endArrow=classic;html=1;rounded=0;entryX=0;entryY=0.5;entryDx=0;entryDy=0;exitX=1;exitY=0.3333333333333333;exitDx=0;exitDy=0;exitPerimeter=0;" parent="1" source="Nw6Wf11O5FGYg6xUdQ0s-26" target="Nw6Wf11O5FGYg6xUdQ0s-21" edge="1">
          <mxGeometry width="50" height="50" relative="1" as="geometry">
            <mxPoint x="250" y="875" as="sourcePoint" />
            <mxPoint x="300" y="825" as="targetPoint" />
          </mxGeometry>
        </mxCell>
        <mxCell id="Nw6Wf11O5FGYg6xUdQ0s-74" value="" style="endArrow=classic;html=1;rounded=0;entryX=0;entryY=0.5;entryDx=0;entryDy=0;" parent="1" target="Nw6Wf11O5FGYg6xUdQ0s-24" edge="1">
          <mxGeometry width="50" height="50" relative="1" as="geometry">
            <mxPoint x="160" y="500" as="sourcePoint" />
            <mxPoint x="200" y="790" as="targetPoint" />
          </mxGeometry>
        </mxCell>
        <mxCell id="Nw6Wf11O5FGYg6xUdQ0s-75" value="" style="endArrow=classic;html=1;rounded=0;entryX=0;entryY=0.5;entryDx=0;entryDy=0;" parent="1" target="Nw6Wf11O5FGYg6xUdQ0s-23" edge="1">
          <mxGeometry width="50" height="50" relative="1" as="geometry">
            <mxPoint x="160" y="500" as="sourcePoint" />
            <mxPoint x="180" y="860" as="targetPoint" />
          </mxGeometry>
        </mxCell>
      </root>
    </mxGraphModel>
  </diagram>
</mxfile>
